<svg width="7" height="11" viewBox="0 0 7 11" fill="none" xmlns="http://www.w3.org/2000/svg">
<path d="M0.71123 9.3477C0.489404 9.3477 0.314716 9.29779 0.187166 9.19797C0.0623886 9.10092 0 8.96643 0 8.79452C0 8.52555 0.080412 8.24411 0.241236 7.95019C0.40206 7.6535 0.634977 7.37622 0.939988 7.11835C1.245 6.8577 1.6124 6.64697 2.04219 6.48614C2.47475 6.32254 2.95999 6.24075 3.49792 6.24075C4.03862 6.24075 4.52387 6.32254 4.95365 6.48614C5.38621 6.64697 5.75361 6.8577 6.05585 7.11835C6.36086 7.37622 6.59378 7.6535 6.7546 7.95019C6.9182 8.24411 7 8.52555 7 8.79452C7 8.96643 6.93622 9.10092 6.80867 9.19797C6.6839 9.29779 6.5106 9.3477 6.28877 9.3477H0.71123ZM3.50208 5.49624C3.20539 5.49624 2.93088 5.41583 2.67855 5.25501C2.42622 5.09141 2.22242 4.87236 2.06714 4.59785C1.91464 4.32056 1.83838 4.01001 1.83838 3.66618C1.83838 3.32789 1.91464 3.02288 2.06714 2.75114C2.22242 2.47941 2.42622 2.26451 2.67855 2.10646C2.93088 1.94841 3.20539 1.86938 3.50208 1.86938C3.79877 1.86938 4.07328 1.94702 4.32561 2.1023C4.57794 2.25758 4.78035 2.47109 4.93286 2.74283C5.08814 3.01179 5.16578 3.3168 5.16578 3.65786C5.16578 4.00446 5.08814 4.3164 4.93286 4.59369C4.78035 4.87097 4.57794 5.09141 4.32561 5.25501C4.07328 5.41583 3.79877 5.49624 3.50208 5.49624Z" fill="#fff"/>
</svg>
