<svg xmlns="http://www.w3.org/2000/svg" width="45" height="38" viewBox="0 0 45 38" fill="none">
    <path d="M7.61485 35C12.5916 35 16.3318 30.8686 18.5637 27.6039C18.2923 28.3261 18.1415 29.0484 18.1415 29.7419C18.1415 31.6487 19.2876 33.0066 21.5499 33.0066C24.6565 33.0066 27.9745 30.4063 29.6937 27.6039C29.5731 28.0084 29.5128 28.384 29.5128 28.7307C29.5128 30.0597 30.297 30.8975 31.8955 30.8975C36.9327 30.8975 42 22.3747 42 14.9208C42 9.1137 38.9234 4 31.2019 4C17.6287 4 3 19.8323 3 30.0597C3 34.0755 5.26217 35 7.61485 35ZM26.5266 14.2852C26.5266 12.8406 27.3712 11.8295 28.6079 11.8295C29.8143 11.8295 30.6589 12.8406 30.6589 14.2852C30.6589 15.7297 29.8143 16.7698 28.6079 16.7698C27.3712 16.7698 26.5266 15.7297 26.5266 14.2852ZM32.9815 14.2852C32.9815 12.8406 33.826 11.8295 35.0626 11.8295C36.2691 11.8295 37.1136 12.8406 37.1136 14.2852C37.1136 15.7297 36.2691 16.7698 35.0626 16.7698C33.826 16.7698 32.9815 15.7297 32.9815 14.2852Z" fill="#FFFDF8"/>
</svg>