<svg xmlns="http://www.w3.org/2000/svg" width="48" height="48" viewBox="0 0 48 48" fill="none">
    <path d="M43.248 13.3759L25.812 41.1419C25.4911 41.6503 24.9877 42.0165 24.4052 42.1652C23.8227 42.314 23.2054 42.2341 22.68 41.9419C22.3316 41.7467 22.0373 41.4676 21.824 41.1299L4.73001 13.3639C4.25108 12.5858 3.99831 11.6896 4.00001 10.7759C4.0216 9.42696 4.57743 8.14166 5.54555 7.20203C6.51368 6.26241 7.81501 5.74521 9.16401 5.76392H38.86C41.694 5.76392 44 7.99992 44 10.7639C44 11.6839 43.74 12.5879 43.246 13.3759M8.92601 12.4479L21.646 32.0579V10.4699H10.256C8.94001 10.4699 8.35001 11.3419 8.92801 12.4479M26.352 32.0579L39.072 12.4479C39.658 11.3419 39.058 10.4699 37.742 10.4699H26.352V32.0579Z" fill="white"/>
</svg>