<svg xmlns="http://www.w3.org/2000/svg" width="51" height="44" viewBox="0 0 51 44" fill="none">
    <path d="M7.00317 44C2.50257 44 0 41.4901 0 36.96V15.7584C0 11.963 1.69529 9.82037 5.04551 8.69806L29.93 0.699004C36.1864 -1.38238 40.0008 1.35199 40.0008 6.67789V8.71846C44.4207 8.77968 46.8223 11.2896 46.8223 15.7584V18.7989C49.5065 19.0642 51 21.0027 51 23.7167V28.961C51 31.6749 49.5065 33.6135 46.8223 33.8787V36.96C46.8223 41.4901 44.3399 44 39.8192 44H7.00317ZM20.0408 8.71846H35.1369V6.29018C35.1369 4.65772 34.0875 4.00473 32.4931 4.47407L20.0206 8.08588C19.4958 8.22872 19.5362 8.71846 20.0408 8.71846ZM38.2651 33.9196C33.3811 33.9196 30.1318 31.2872 30.1318 26.3286C30.1318 21.3904 33.3811 18.7581 38.2651 18.7581H41.5952V16.391C41.5952 14.7382 40.7879 13.9831 39.2541 13.9831H7.56826C6.03443 13.9831 5.22715 14.7382 5.22715 16.391V36.307C5.22715 37.9599 6.03443 38.7149 7.56826 38.7149H39.2541C40.7879 38.7149 41.5952 37.9599 41.5952 36.307V33.9196H38.2651ZM38.2651 30.0425H45.2078C46.4994 30.0425 47.1654 29.3895 47.1654 28.0835V24.5941C47.1654 23.2882 46.4994 22.6352 45.2078 22.6352H38.2651C35.7222 22.6352 34.148 23.9411 34.148 26.3286C34.148 28.7365 35.7222 30.0425 38.2651 30.0425ZM38.245 28.6345C36.9735 28.6345 35.9442 27.6142 35.9442 26.3286C35.9442 25.0635 36.9735 24.0228 38.245 24.0228C39.4962 24.0228 40.5255 25.0635 40.5255 26.3286C40.5255 27.6142 39.4962 28.6345 38.245 28.6345Z" fill="white"/>
</svg>