<svg xmlns="http://www.w3.org/2000/svg" width="16" height="16" viewBox="0 0 16 16" fill="none">
    <path fill-rule="evenodd" clip-rule="evenodd" d="M0.388342 1.94115C0.000810686 2.70161 0.000749561 3.69714 0.000627312 5.68819L0.000343486 10.3108C0.000221236 12.3019 0.000160112 13.2974 0.387598 14.0579C0.728398 14.7269 1.27223 15.2708 1.94115 15.6117C2.7016 15.9992 3.69713 15.9992 5.68818 15.9994L10.3108 15.9997C12.3019 15.9998 13.2974 15.9998 14.0579 15.6124C14.7269 15.2716 15.2708 14.7278 15.6116 14.0588C15.9992 13.2984 15.9992 12.3029 15.9994 10.3118L15.9996 5.68917C15.9998 3.69812 15.9998 2.70259 15.6124 1.94209C15.2716 1.27313 14.7278 0.72923 14.0588 0.388348C13.2984 0.000816451 12.3029 0.000755326 10.3118 0.000633077L5.68917 0.000349251C3.69811 0.000227001 2.70259 0.000165877 1.94208 0.387604C1.27312 0.728404 0.729225 1.27223 0.388342 1.94115ZM1.55131 5.3488C1.45443 5.53892 1.45442 5.7878 1.45438 6.28556L1.45405 11.6893C1.45399 12.6848 1.45396 13.1825 1.64768 13.5628C1.81808 13.8973 2.09 14.1692 2.42445 14.3397C2.80468 14.5334 3.30245 14.5335 4.29798 14.5335L11.7454 14.534C12.7409 14.534 13.2387 14.5341 13.6189 14.3404C13.9534 14.17 14.2254 13.898 14.3958 13.5636C14.5896 13.1834 14.5896 12.6856 14.5897 11.6901L14.59 6.28637C14.59 5.7886 14.59 5.53972 14.4932 5.3496C14.408 5.18236 14.272 5.04638 14.1048 4.96116C13.9147 4.86428 13.6658 4.86426 13.168 4.86423L2.87652 4.8636C2.37876 4.86357 2.12987 4.86356 1.93975 4.96041C1.77251 5.04561 1.63653 5.18157 1.55131 5.3488Z" fill="white"/>
</svg>